<svg version="1.1" id="Layer_1" xmlns="http://www.w3.org/2000/svg" xmlns:xlink="http://www.w3.org/1999/xlink" x="0px" y="0px"
	 width="100%" viewBox="0 0 247 131" enable-background="new 0 0 247 131" xml:space="preserve">
<path fill="#F7F8F9" opacity="1.000000" stroke="none" 
	d="
M141.000000,132.000000 
	C94.000000,132.000000 47.500004,132.000000 1.000006,132.000000 
	C1.000004,88.333336 1.000004,44.666676 1.000002,1.000012 
	C83.333321,1.000008 165.666641,1.000008 247.999969,1.000004 
	C247.999985,44.666653 247.999985,88.333305 248.000000,131.999969 
	C212.500000,132.000000 177.000000,132.000000 141.000000,132.000000 
M92.531601,117.207001 
	C91.878105,118.980453 91.224609,120.753899 90.395309,123.004456 
	C95.890358,123.004456 100.561516,122.759277 105.192497,123.085121 
	C108.648872,123.328308 110.021179,121.922852 111.290138,118.855652 
	C122.974350,90.613670 134.864853,62.457092 146.668457,34.264408 
	C150.150711,25.947115 153.547653,17.594105 157.206177,8.717655 
	C151.750671,8.717655 147.088242,8.945551 142.460373,8.643611 
	C138.928726,8.413192 137.274612,9.648794 135.903854,12.977778 
	C121.676529,47.529778 107.251907,82.000526 92.531601,117.207001 
M183.734802,35.849716 
	C180.475922,34.323563 177.217041,32.797409 173.279572,30.953465 
	C173.279572,35.555622 173.540390,39.360046 173.201447,43.110271 
	C172.901443,46.429764 174.472534,47.852081 177.208786,48.970272 
	C185.201859,52.236698 193.151245,55.611618 201.089340,59.010368 
	C206.880875,61.490040 212.627396,64.074806 219.301605,67.012177 
	C204.803558,72.743538 191.492722,77.900528 178.296967,83.336838 
	C176.346756,84.140266 173.803925,86.073036 173.509842,87.816376 
	C172.807236,91.981689 173.283066,96.345795 173.283066,101.111252 
	C174.683441,100.633904 175.609833,100.402458 176.465027,100.014183 
	C195.191223,91.512398 213.896118,82.963463 232.643921,74.509674 
	C235.426926,73.254761 238.031235,72.436104 237.428314,68.349701 
	C236.895950,64.741531 238.087906,61.303890 233.108261,59.090462 
	C216.718903,51.805473 200.650116,43.799301 183.734802,35.849716 
M45.540886,46.140285 
	C35.371155,51.015541 25.316635,56.155727 14.981393,60.650406 
	C10.069538,62.786514 12.659496,66.494446 12.020248,69.526276 
	C11.480798,72.084785 12.435296,73.619522 15.057273,74.778297 
	C28.852097,80.874870 42.535458,87.223389 56.266411,93.464874 
	C62.698101,96.388435 69.149811,99.267967 75.871613,102.293083 
	C75.871613,96.548393 75.871613,91.417931 75.871613,86.132614 
	C60.817333,80.046303 45.824265,73.984734 30.103453,67.628944 
	C32.140388,66.720894 33.334396,66.171455 34.541725,65.653038 
	C47.201477,60.217033 59.885712,54.836727 72.493073,49.281918 
	C73.887177,48.667675 75.736275,47.143219 75.846252,45.905167 
	C76.249001,41.370991 76.005737,36.779430 76.005737,31.587357 
	C65.613800,36.553547 55.919079,41.186543 45.540886,46.140285 
z"/>
<path fill="#3068A2" opacity="1.000000" stroke="none" 
	d="
M92.706841,116.850426 
	C107.251907,82.000526 121.676529,47.529778 135.903854,12.977778 
	C137.274612,9.648794 138.928726,8.413192 142.460373,8.643611 
	C147.088242,8.945551 151.750671,8.717655 157.206177,8.717655 
	C153.547653,17.594105 150.150711,25.947115 146.668457,34.264408 
	C134.864853,62.457092 122.974350,90.613670 111.290138,118.855652 
	C110.021179,121.922852 108.648872,123.328308 105.192497,123.085121 
	C100.561516,122.759277 95.890358,123.004456 90.395309,123.004456 
	C91.224609,120.753899 91.878105,118.980453 92.706841,116.850426 
z"/>
<path fill="#383838" opacity="1.000000" stroke="none" 
	d="
M184.096497,35.959927 
	C200.650116,43.799301 216.718903,51.805473 233.108261,59.090462 
	C238.087906,61.303890 236.895950,64.741531 237.428314,68.349701 
	C238.031235,72.436104 235.426926,73.254761 232.643921,74.509674 
	C213.896118,82.963463 195.191223,91.512398 176.465027,100.014183 
	C175.609833,100.402458 174.683441,100.633904 173.283066,101.111252 
	C173.283066,96.345795 172.807236,91.981689 173.509842,87.816376 
	C173.803925,86.073036 176.346756,84.140266 178.296967,83.336838 
	C191.492722,77.900528 204.803558,72.743538 219.301605,67.012177 
	C212.627396,64.074806 206.880875,61.490040 201.089340,59.010368 
	C193.151245,55.611618 185.201859,52.236698 177.208786,48.970272 
	C174.472534,47.852081 172.901443,46.429764 173.201447,43.110271 
	C173.540390,39.360046 173.279572,35.555622 173.279572,30.953465 
	C177.217041,32.797409 180.475922,34.323563 184.096497,35.959927 
z"/>
<path fill="#373737" opacity="1.000000" stroke="none" 
	d="
M45.882622,45.979912 
	C55.919079,41.186543 65.613800,36.553547 76.005737,31.587357 
	C76.005737,36.779430 76.249001,41.370991 75.846252,45.905167 
	C75.736275,47.143219 73.887177,48.667675 72.493073,49.281918 
	C59.885712,54.836727 47.201477,60.217033 34.541725,65.653038 
	C33.334396,66.171455 32.140388,66.720894 30.103453,67.628944 
	C45.824265,73.984734 60.817333,80.046303 75.871613,86.132614 
	C75.871613,91.417931 75.871613,96.548393 75.871613,102.293083 
	C69.149811,99.267967 62.698101,96.388435 56.266411,93.464874 
	C42.535458,87.223389 28.852097,80.874870 15.057273,74.778297 
	C12.435296,73.619522 11.480798,72.084785 12.020248,69.526276 
	C12.659496,66.494446 10.069538,62.786514 14.981393,60.650406 
	C25.316635,56.155727 35.371155,51.015541 45.882622,45.979912 
z"/>
</svg>